# xmcd CD database file
#
# Track frame offsets:
#	150
#	20278
#	40754
#	63322
#	84591
#	107333
#	129860
#	152887
#	168571
#	188193
#	206324
#	224850
#	241757
#	259237
#	272514
#	288744
#	304781
#	324204
#
# Disc length: 4691 seconds
#
# Revision: 1
# Processed by: cddbd v1.5.2PL0 Copyright (c) Steve Scherf et al.
# Submitted via: CDex 1.90
#
DISCID=f8125112
DTITLE=Yazz - Wanted (Deluxe (Edition) (1 of 3)
DYEAR=2016
DGENRE=Pop
TTITLE0=The Only Way Is Up
TTITLE1=Where Has All The Love Gone?
TTITLE2=Got To Share
TTITLE3=Fine Time
TTITLE4=Stand Up For Your Love Rights
TTITLE5=Wanted On The Floor
TTITLE6=Something Special
TTITLE7=Systematic People
TTITLE8=Turn It Up
TTITLE9=The Only Way Is Up (7" Edit)
TTITLE10=Stand Up For Your Love Rights (7'' Version) (Bonus Track)
TTITLE11=Fine Time (7'' Version) (Bonus Track)
TTITLE12=Where Has All The Love Gone? (7'' Version) (Bonus Track)
TTITLE13=Bad House Music (7'' Version) (Bonus Track)
TTITLE14=Treat Me Good (7'' Version) (Bonus Track)
TTITLE15=I Want Your Love (Bonus Track)
TTITLE16=Stand Up For Your Love Rights (U.S. Remix) (Bonus Track)
TTITLE17=Dream (Juan Atkins Remix) (Bonus Track)
EXTD=YEAR: 2016
EXTT0=
EXTT1=
EXTT2=
EXTT3=
EXTT4=
EXTT5=
EXTT6=
EXTT7=
EXTT8=
EXTT9=
EXTT10=
EXTT11=
EXTT12=
EXTT13=
EXTT14=
EXTT15=
EXTT16=
EXTT17=
PLAYORDER=
